<svg id="Layer_2" data-name="Layer 2" xmlns="http://www.w3.org/2000/svg" viewBox="0 0 292 287">
  <defs>
    <style>
      .cls-1 {
        fill: #fff;
      }
    </style>
  </defs>
  <title>Icon2</title>
  <g>
    <path class="cls-1" d="M85.24,52.23H44.09A4.14,4.14,0,0,1,40,48.09V27.51C40,13.45,51.05,2,64.69,2S89.43,13.45,89.43,27.51l0,20.59A4.14,4.14,0,0,1,85.24,52.23ZM48.24,44H81.11l0-16.45c0-9.49-7.38-17.22-16.46-17.22S48.24,18,48.24,27.51Z"/>
    <path class="cls-1" d="M39.46,266.28H22.9a4.14,4.14,0,0,1-4.15-4.14V73.07A12.44,12.44,0,0,1,31.18,60.64h54a4.15,4.15,0,0,1,4.14,4.15l0,16.57a4.13,4.13,0,0,1-4.14,4.13H43.61V262.14A4.14,4.14,0,0,1,39.46,266.28ZM27,258h8.28V81.35a4.14,4.14,0,0,1,4.14-4.14H81l0-8.29H31.18A4.15,4.15,0,0,0,27,73.07Z"/>
    <path class="cls-1" d="M268.05,266.28H251.48a4.14,4.14,0,0,1-4.14-4.14V85.49H217.77a4.14,4.14,0,0,1-4.14-4.14V64.78a4.14,4.14,0,0,1,4.14-4.14h42a12.43,12.43,0,0,1,12.42,12.43V262.14A4.14,4.14,0,0,1,268.05,266.28ZM255.63,258h8.28V73.07a4.15,4.15,0,0,0-4.14-4.15H221.91v8.29h29.57a4.14,4.14,0,0,1,4.15,4.14Z"/>
    <path class="cls-1" d="M217.77,245.35H84.94a4.15,4.15,0,0,1-4.14-4.14l0-81.67L81.1,48.09a4.23,4.23,0,0,1,.05-.63V27.51c0-9.43-7.28-17.12-16.27-17.23h-.21a4.14,4.14,0,0,1-4.12-4.15A4.22,4.22,0,0,1,65,2l123.47.7c18.46.11,33.49,15.71,33.49,34.79V241.21A4.14,4.14,0,0,1,217.77,245.35ZM89.09,237.07H213.63V37.49C213.63,23,202.3,11.06,188.37,11h0L83,10.39a25.88,25.88,0,0,1,6.41,17.12V48.09a3.49,3.49,0,0,1-.05.65Z"/>
    <path class="cls-1" d="M269.75,287H21.19A16.56,16.56,0,0,1,4.65,270.46v-8.32A4.14,4.14,0,0,1,8.79,258H282.15a4.14,4.14,0,0,1,4.14,4.14v8.32A16.56,16.56,0,0,1,269.75,287ZM12.94,266.28v4.18a8.27,8.27,0,0,0,8.25,8.26H269.75a8.27,8.27,0,0,0,8.26-8.26v-4.18Z"/>
    <path class="cls-1" d="M133.52,145.7a4.13,4.13,0,0,1-2.93-1.21L114,127.87a4.15,4.15,0,0,1,0-5.86l16.62-16.61a4.14,4.14,0,0,1,5.86,5.86l-13.69,13.68,13.69,13.69a4.14,4.14,0,0,1-2.93,7.07Z"/>
    <path class="cls-1" d="M169.46,145.7a4.14,4.14,0,0,1-2.93-7.07l13.69-13.69-13.69-13.68a4.14,4.14,0,1,1,5.86-5.86L189,122a4.15,4.15,0,0,1,0,5.86l-16.61,16.62A4.13,4.13,0,0,1,169.46,145.7Z"/>
    <path class="cls-1" d="M143.91,153.56a4.27,4.27,0,0,1-1.16-.16,4.15,4.15,0,0,1-2.82-5.14L154.2,99.31a4.14,4.14,0,1,1,8,2.32l-14.26,49A4.14,4.14,0,0,1,143.91,153.56Z"/>
  </g>
</svg>
