<svg id="Layer_4" data-name="Layer 4" xmlns="http://www.w3.org/2000/svg" viewBox="0 0 284.22 285">
  <defs>
    <style>
      .cls-1 {
        fill: #fff;
      }
    </style>
  </defs>
  <title>Icon4-01-01</title>
  <g>
    <g>
      <path class="cls-1" d="M29.55,30.68a4.13,4.13,0,0,1-2.93-1.25,2.74,2.74,0,0,1-.52-.6,6.23,6.23,0,0,1-.39-.72,7.59,7.59,0,0,1-.22-.78,3.8,3.8,0,0,1-.08-.82,3.9,3.9,0,0,1,.08-.81c.05-.24.14-.52.22-.77a5.5,5.5,0,0,1,.39-.72,3.87,3.87,0,0,1,.52-.63,4.1,4.1,0,0,1,3.73-1.13,3.37,3.37,0,0,1,.78.24,4.1,4.1,0,0,1,.71.39,3.36,3.36,0,0,1,.64.5,5.27,5.27,0,0,1,.52.63,3.23,3.23,0,0,1,.36.72,4.05,4.05,0,0,1,.25.77,3.9,3.9,0,0,1,.08.81,3.8,3.8,0,0,1-.08.82,3.92,3.92,0,0,1-.25.78,3.46,3.46,0,0,1-.36.72,3.4,3.4,0,0,1-.52.6,3.53,3.53,0,0,1-.64.53,6,6,0,0,1-.71.38,3,3,0,0,1-.78.25A3.44,3.44,0,0,1,29.55,30.68Z" transform="translate(-5.51 -1)"/>
      <path class="cls-1" d="M59.3,26.53a4.16,4.16,0,0,1,4.14-4.17h0a4.16,4.16,0,0,1,4.14,4.17h0a4.13,4.13,0,0,1-4.14,4.12h0A4.13,4.13,0,0,1,59.3,26.53Z" transform="translate(-5.51 -1)"/>
      <path class="cls-1" d="M97.33,30.68a3.53,3.53,0,0,1-.81-.09,3,3,0,0,1-.77-.25A3.28,3.28,0,0,1,95,30a4,4,0,0,1-.63-.5,6.53,6.53,0,0,1-.53-.63c-.13-.23-.27-.47-.38-.72a5.69,5.69,0,0,1-.22-.78,3.77,3.77,0,0,1-.09-.8,4.21,4.21,0,0,1,1.22-3,2.78,2.78,0,0,1,.63-.5,3.31,3.31,0,0,1,.72-.39,3,3,0,0,1,.77-.24,4.83,4.83,0,0,1,1.61,0,3.44,3.44,0,0,1,.77.24,3.85,3.85,0,0,1,.72.39,3.3,3.3,0,0,1,.63.5,4.17,4.17,0,0,1,1.22,3,3.77,3.77,0,0,1-.09.8,3.88,3.88,0,0,1-.24.78,4,4,0,0,1-.36.72,5.35,5.35,0,0,1-.53.63,5.12,5.12,0,0,1-.63.5,3.81,3.81,0,0,1-.72.38,3,3,0,0,1-.77.25A3.5,3.5,0,0,1,97.33,30.68Z" transform="translate(-5.51 -1)"/>
    </g>
    <path class="cls-1" d="M9.65,256.83a4.14,4.14,0,0,1-4.14-4.14V5.14a4.15,4.15,0,0,1,8.29,0V252.69A4.14,4.14,0,0,1,9.65,256.83Z" transform="translate(-5.51 -1)"/>
    <path class="cls-1" d="M212.14,95.88A4.14,4.14,0,0,1,208,91.74V42.85a4.14,4.14,0,0,1,8.28,0V91.74A4.14,4.14,0,0,1,212.14,95.88Z" transform="translate(-5.51 -1)"/>
    <path class="cls-1" d="M212.14,243.32a4.14,4.14,0,0,1-4.14-4.15V194.9a4.14,4.14,0,1,1,8.28,0v44.27A4.14,4.14,0,0,1,212.14,243.32Z" transform="translate(-5.51 -1)"/>
    <path class="cls-1" d="M43.66,286c-1.23,0-2.45-.06-3.65-.16-19.67-1.64-34.5-16-34.5-33.37a4.15,4.15,0,1,1,8.29,0c0,13,11.56,23.84,26.9,25.11,1,.09,2,.13,3,.13,16.47,0,29.87-11.32,29.87-25.24v-13.3a4.14,4.14,0,0,1,8.28,0v13.3C81.81,271,64.7,286,43.66,286Z" transform="translate(-5.51 -1)"/>
    <path class="cls-1" d="M204.26,286H43.66a4.15,4.15,0,0,1,0-8.29c16.47,0,29.87-11.32,29.87-25.24v-13.3A4.14,4.14,0,0,1,77.67,235H238.26a4.14,4.14,0,0,1,4.15,4.14v13.3C242.41,271,225.29,286,204.26,286ZM68.74,277.71H204.26c16.46,0,29.86-11.32,29.86-25.24v-9.15H81.81v9.15C81.81,262.52,76.75,271.56,68.74,277.71Z" transform="translate(-5.51 -1)"/>
    <path class="cls-1" d="M212.14,47H9.65a4.15,4.15,0,0,1-4.14-4.15V5.14A4.14,4.14,0,0,1,9.65,1H212.14a4.14,4.14,0,0,1,4.14,4.14V42.85A4.14,4.14,0,0,1,212.14,47ZM13.8,38.71H208V9.29H13.8Z" transform="translate(-5.51 -1)"/>
    <g>
      <path class="cls-1" d="M268.65,198.7c-.49,0-1,0-1.5-.07l-73.53-5.74a4.14,4.14,0,0,1-3.83-4.13V165.62a4.14,4.14,0,0,1,3.82-4.13l73.6-5.75a16.23,16.23,0,0,1,12.55,4.34c4.41,4,6.95,10.26,6.95,17.11s-2.54,13.08-7,17.11A16.35,16.35,0,0,1,268.65,198.7Zm-70.57-13.77,69.78,5.44a8.1,8.1,0,0,0,6.31-2.19c2.7-2.46,4.25-6.47,4.25-11s-1.55-8.53-4.25-11a8,8,0,0,0-6.25-2.2l-69.84,5.45Z" transform="translate(-5.51 -1)"/>
      <path class="cls-1" d="M125.19,191.21H98.67a4.15,4.15,0,0,1-4.15-4.15V167.32a4.15,4.15,0,0,1,4.15-4.15h26.52a4.16,4.16,0,0,1,2.9,1.19l10,9.87a4.15,4.15,0,0,1,0,5.92l-10,9.87A4.16,4.16,0,0,1,125.19,191.21Zm-22.38-8.29h20.68l5.84-5.73-5.84-5.73H102.81Z" transform="translate(-5.51 -1)"/>
      <path class="cls-1" d="M193.94,181.33h-58.7a4.14,4.14,0,1,1,0-8.28h58.7a4.14,4.14,0,1,1,0,8.28Z" transform="translate(-5.51 -1)"/>
    </g>
    <g>
      <path class="cls-1" d="M75,146.87a4.11,4.11,0,0,1-2.09-.57l-29-17a4.14,4.14,0,1,1,4.18-7.15L75,137.92l24.83-14.54v-3.21a4.15,4.15,0,0,1,8.29,0v5.58a4.16,4.16,0,0,1-2,3.58l-29,17A4.11,4.11,0,0,1,75,146.87Z" transform="translate(-5.51 -1)"/>
      <path class="cls-1" d="M104,101.53a4.14,4.14,0,0,1-4.14-4.14V94.18L75,79.64,48.14,95.38A4.14,4.14,0,1,1,44,88.23l29-17a4.12,4.12,0,0,1,4.18,0l29,17a4.16,4.16,0,0,1,2,3.58v5.58A4.14,4.14,0,0,1,104,101.53Z" transform="translate(-5.51 -1)"/>
      <path class="cls-1" d="M75,132a4.11,4.11,0,0,1-2.09-.57l-16.24-9.51a4.14,4.14,0,0,1,4.19-7.15L75,123l12.09-7.08V101.64L75,94.56l-14.14,8.28a4.14,4.14,0,1,1-4.19-7.15l16.24-9.51a4.12,4.12,0,0,1,4.18,0l16.24,9.51a4.16,4.16,0,0,1,2.05,3.58v19a4.16,4.16,0,0,1-2.05,3.58l-16.24,9.51A4.11,4.11,0,0,1,75,132Z" transform="translate(-5.51 -1)"/>
      <path class="cls-1" d="M46.05,129.9A4.14,4.14,0,0,1,44,122.18l12.73-7.46a4.14,4.14,0,0,1,4.19,7.15l-12.74,7.46A4.19,4.19,0,0,1,46.05,129.9Z" transform="translate(-5.51 -1)"/>
      <path class="cls-1" d="M58.78,103.41a4.09,4.09,0,0,1-2.09-.57L44,95.38a4.14,4.14,0,1,1,4.18-7.15l12.74,7.46a4.14,4.14,0,0,1-2.1,7.72Z" transform="translate(-5.51 -1)"/>
      <path class="cls-1" d="M256.61,146.87a4.13,4.13,0,0,1-2.09-.57l-29-17a4.16,4.16,0,0,1-2.05-3.58v-5.58a4.15,4.15,0,0,1,8.29,0v3.21l24.82,14.54,26.88-15.74a4.14,4.14,0,1,1,4.19,7.15l-29,17A4.14,4.14,0,0,1,256.61,146.87Z" transform="translate(-5.51 -1)"/>
      <path class="cls-1" d="M227.64,101.53a4.14,4.14,0,0,1-4.14-4.14V91.81a4.16,4.16,0,0,1,2.05-3.58l29-17a4.14,4.14,0,0,1,4.19,0l29,17a4.14,4.14,0,0,1-4.19,7.15L256.61,79.64,231.79,94.18v3.21A4.14,4.14,0,0,1,227.64,101.53Z" transform="translate(-5.51 -1)"/>
      <path class="cls-1" d="M256.61,132a4.13,4.13,0,0,1-2.09-.57l-16.24-9.51a4.15,4.15,0,0,1-2-3.58v-19a4.15,4.15,0,0,1,2-3.58l16.24-9.51a4.14,4.14,0,0,1,4.19,0L275,95.69a4.14,4.14,0,1,1-4.19,7.15l-14.15-8.28-12.09,7.08v14.28L256.61,123l14.15-8.28a4.14,4.14,0,1,1,4.19,7.15l-16.24,9.51A4.14,4.14,0,0,1,256.61,132Z" transform="translate(-5.51 -1)"/>
      <path class="cls-1" d="M285.58,129.9a4.19,4.19,0,0,1-2.09-.57l-12.73-7.46a4.14,4.14,0,0,1,4.19-7.15l12.73,7.46a4.14,4.14,0,0,1-2.1,7.72Z" transform="translate(-5.51 -1)"/>
      <path class="cls-1" d="M272.86,103.41a4.14,4.14,0,0,1-2.1-7.72l12.73-7.46a4.14,4.14,0,1,1,4.19,7.15L275,102.84A4.09,4.09,0,0,1,272.86,103.41Z" transform="translate(-5.51 -1)"/>
      <path class="cls-1" d="M227.64,124.31H104a4.14,4.14,0,0,1,0-8.28H227.64a4.14,4.14,0,1,1,0,8.28Z" transform="translate(-5.51 -1)"/>
      <path class="cls-1" d="M227.64,101.53H104a4.14,4.14,0,0,1,0-8.28H227.64a4.14,4.14,0,1,1,0,8.28Z" transform="translate(-5.51 -1)"/>
    </g>
    <path class="cls-1" d="M212.14,168.34A4.14,4.14,0,0,1,208,164.2v-44a4.14,4.14,0,0,1,8.28,0v44A4.14,4.14,0,0,1,212.14,168.34Z" transform="translate(-5.51 -1)"/>
  </g>
</svg>
