<svg id="Layer_1" data-name="Layer 1" xmlns="http://www.w3.org/2000/svg" viewBox="0 0 292 287">
  <defs>
    <style>
      .cls-1 {
        fill: #fff;
      }
    </style>
  </defs>
  <title>marketingTools</title>
  <g>
    <path class="cls-1" d="M24.47,28.65a4.14,4.14,0,0,1-2.91-1.2,4.12,4.12,0,0,1,0-5.83,4.26,4.26,0,0,1,5.83,0,4,4,0,0,1,1.2,2.91,4.18,4.18,0,0,1-1.2,2.92A4.22,4.22,0,0,1,24.47,28.65Z"/>
    <path class="cls-1" d="M48.22,24.53a4.11,4.11,0,0,1,4.09-4.12h0a4.14,4.14,0,0,1,4.15,4.12h0a4.14,4.14,0,0,1-4.15,4.12h0A4.11,4.11,0,0,1,48.22,24.53Z"/>
    <path class="cls-1" d="M80.17,28.65a3.77,3.77,0,0,1-1.56-.33,4,4,0,0,1-1.35-.87,4.69,4.69,0,0,1-.9-1.35,4.18,4.18,0,0,1-.31-1.57,4.24,4.24,0,0,1,.33-1.59,3.73,3.73,0,0,1,.36-.72,3.4,3.4,0,0,1,.52-.6,3.87,3.87,0,0,1,.63-.52,5.5,5.5,0,0,1,.72-.39,2.45,2.45,0,0,1,.77-.22,4,4,0,0,1,1.62,0,3.12,3.12,0,0,1,.77.22,5.13,5.13,0,0,1,.69.39,3.17,3.17,0,0,1,.63.52,4.11,4.11,0,0,1,1.21,2.91A4.18,4.18,0,0,1,84,26.1a4.69,4.69,0,0,1-.9,1.35A4.15,4.15,0,0,1,80.17,28.65Z"/>
  </g>
  <path class="cls-1" d="M286,60.38H6.51a4.12,4.12,0,0,1-4.12-4.12V4.12A4.12,4.12,0,0,1,6.51,0H286a4.12,4.12,0,0,1,4.12,4.12V56.26A4.12,4.12,0,0,1,286,60.38ZM10.63,52.13H281.86V8.24H10.63Z"/>
  <path class="cls-1" d="M286,286.35H6.51a4.11,4.11,0,0,1-4.12-4.12v-226a4.12,4.12,0,0,1,4.12-4.13H286a4.12,4.12,0,0,1,4.12,4.13v226A4.11,4.11,0,0,1,286,286.35ZM10.63,278.11H281.86V60.38H10.63Z"/>
  <path class="cls-1" d="M146.1,254.3a4.11,4.11,0,0,1-3.06-1.37L131.42,240l-15.67,7.51a4.1,4.1,0,0,1-5.67-2.35l-5.76-16.4L87,229.71a4.19,4.19,0,0,1-3.13-1.2,4.14,4.14,0,0,1-1.21-3.14L83.57,208l-16.4-5.76a4.12,4.12,0,0,1-2.35-5.67l7.52-15.67L59.41,169.31a4.13,4.13,0,0,1,0-6.13l12.93-11.62-7.52-15.67a4.18,4.18,0,0,1-.09-3.36,4.14,4.14,0,0,1,2.45-2.31l16.39-5.76-.93-17.35a4.06,4.06,0,0,1,1.2-3.13A4.24,4.24,0,0,1,87,102.77l17.34.94,5.76-16.4A4.12,4.12,0,0,1,115.75,85l15.68,7.52L143,79.56a4.24,4.24,0,0,1,6.13,0l11.61,12.93L176.45,85a4.14,4.14,0,0,1,3.36-.1,4.08,4.08,0,0,1,2.31,2.45l5.76,16.39,17.35-.93a4.08,4.08,0,0,1,3.14,1.2,4.13,4.13,0,0,1,1.2,3.14l-.93,17.35L225,130.22a4.12,4.12,0,0,1,2.35,5.67l-7.51,15.68,12.92,11.61a4.11,4.11,0,0,1,0,6.13l-12.92,11.61,7.51,15.67a4.1,4.1,0,0,1,.09,3.36,4,4,0,0,1-2.44,2.31L208.63,208l.94,17.35a4.13,4.13,0,0,1-1.2,3.14,4.24,4.24,0,0,1-3.14,1.2l-17.35-.93-5.76,16.39a4.1,4.1,0,0,1-5.67,2.35L160.78,240l-11.61,12.92A4.13,4.13,0,0,1,146.1,254.3Zm-13.68-23.47a4.12,4.12,0,0,1,3.07,1.37L146.1,244l10.61-11.81a4.11,4.11,0,0,1,4.85-1l14.31,6.86,5.26-15a4.14,4.14,0,0,1,4.11-2.75l15.85.85-.86-15.85a4.13,4.13,0,0,1,2.75-4.11L218,196,211.1,181.7a4.12,4.12,0,0,1,1-4.85l11.81-10.61-11.81-10.61a4.1,4.1,0,0,1-1-4.84L218,136.48l-15-5.26a4.11,4.11,0,0,1-2.75-4.11l.85-15.85-15.85.85a4.19,4.19,0,0,1-4.11-2.75l-5.26-15-14.31,6.86a4.13,4.13,0,0,1-4.85-1L146.1,88.48l-10.61,11.81a4.1,4.1,0,0,1-4.84,1l-14.31-6.87-5.26,15a4.19,4.19,0,0,1-4.11,2.75l-15.85-.86L92,127.11a4.12,4.12,0,0,1-2.75,4.11l-15,5.25,6.86,14.31a4.13,4.13,0,0,1-1,4.85L68.34,166.24l11.81,10.61a4.13,4.13,0,0,1,1,4.85L74.24,196l15,5.26A4.11,4.11,0,0,1,92,205.38l-.86,15.85,15.86-.86a4.25,4.25,0,0,1,4.11,2.75l5.25,15,14.31-6.86A4,4,0,0,1,132.42,230.83Z"/>
  <path class="cls-1" d="M126,178.8a4.11,4.11,0,0,1-4.12-4.12V146a4.12,4.12,0,1,1,8.24,0v28.64A4.12,4.12,0,0,1,126,178.8Z"/>
  <path class="cls-1" d="M121.86,193a4.11,4.11,0,0,1,4.12-4.12h0a4.12,4.12,0,0,1,4.13,4.12h0a4.12,4.12,0,0,1-4.13,4.12h0A4.11,4.11,0,0,1,121.86,193Z"/>
  <path class="cls-1" d="M146.1,178.79a4.13,4.13,0,0,1-4.12-4.12V146a4.12,4.12,0,0,1,8.24,0v28.64A4.12,4.12,0,0,1,146.1,178.79Z"/>
  <path class="cls-1" d="M142,193a4.11,4.11,0,0,1,4.12-4.12h0a4.11,4.11,0,0,1,4.12,4.12h0a4.11,4.11,0,0,1-4.12,4.12h0A4.11,4.11,0,0,1,142,193Z"/>
  <path class="cls-1" d="M166.23,178.77a4.11,4.11,0,0,1-4.12-4.12V146a4.12,4.12,0,1,1,8.24,0v28.64A4.12,4.12,0,0,1,166.23,178.77Z"/>
  <path class="cls-1" d="M162.09,193a4.11,4.11,0,0,1,4.12-4.12h0a4.12,4.12,0,0,1,4.13,4.12h0a4.12,4.12,0,0,1-4.13,4.12h0A4.11,4.11,0,0,1,162.09,193Z"/>
</svg>
