<svg id="Layer_5" data-name="Layer 5" xmlns="http://www.w3.org/2000/svg" viewBox="0 0 288.75 285.21">
  <defs>
    <style>
      .cls-1 {
        fill: #fff;
      }
    </style>
  </defs>
  <title>Icon5-01-01</title>
  <g>
    <path class="cls-1" d="M278.35,225.29H14.16c-6.77,0-12.28-5.8-12.28-12.93V13.72C1.88,6.59,7.39.79,14.16.79H278.35c6.77,0,12.28,5.8,12.28,12.93V212.36C290.63,219.49,285.12,225.29,278.35,225.29ZM14.16,9.14c-2.17,0-3.93,2-3.93,4.58V212.36c0,2.53,1.76,4.58,3.93,4.58H278.35c2.16,0,3.92-2.05,3.92-4.58V13.72c0-2.53-1.76-4.58-3.92-4.58ZM270.25,207.78h-248a4.18,4.18,0,0,1-4.18-4.17V22.48a4.18,4.18,0,0,1,4.18-4.18h248a4.18,4.18,0,0,1,4.18,4.18V203.61A4.18,4.18,0,0,1,270.25,207.78ZM26.43,199.43H266.07V26.65H26.43Z" transform="translate(-1.88 -0.79)"/>
    <path class="cls-1" d="M205,286H85.12a4.18,4.18,0,0,1-4.18-4.18V264.94a4.18,4.18,0,0,1,4.18-4.18,23.05,23.05,0,0,0,23-23V221.12a4.18,4.18,0,0,1,4.18-4.18h62.89a4.18,4.18,0,0,1,4.18,4.18v14.06A25.6,25.6,0,0,0,205,260.76a4.18,4.18,0,0,1,4.18,4.18v16.88A4.18,4.18,0,0,1,205,286ZM89.3,277.65H200.78v-8.79A34,34,0,0,1,171,235.18v-9.89H116.49v12.45a31.42,31.42,0,0,1-27.19,31.1Z" transform="translate(-1.88 -0.79)"/>
    <path class="cls-1" d="M68,65.14a4.17,4.17,0,0,1-3-1.23L54.29,53.15a4.17,4.17,0,0,1,0-5.9L65.05,36.48A4.18,4.18,0,0,1,71,42.39L63.15,50.2,71,58A4.18,4.18,0,0,1,68,65.14Z" transform="translate(-1.88 -0.79)"/>
    <path class="cls-1" d="M146.32,65.14A4.18,4.18,0,0,1,143.37,58l7.81-7.81-7.81-7.81a4.18,4.18,0,1,1,5.9-5.91L160,47.25a4.17,4.17,0,0,1,0,5.9L149.27,63.91A4.13,4.13,0,0,1,146.32,65.14Z" transform="translate(-1.88 -0.79)"/>
    <path class="cls-1" d="M221.55,83.88h0a4.17,4.17,0,0,1-3.58-2l-7.32-12.29a4.18,4.18,0,0,1,7.18-4.27l3.73,6.27,7.79-13a4.18,4.18,0,0,1,7.17,4.28L225.13,81.84A4.15,4.15,0,0,1,221.55,83.88Z" transform="translate(-1.88 -0.79)"/>
    <path class="cls-1" d="M247.42,100.83H197.87a4.18,4.18,0,0,1-4.18-4.17V47.1a4.17,4.17,0,0,1,4.18-4.17h49.55a4.17,4.17,0,0,1,4.18,4.17V96.66A4.18,4.18,0,0,1,247.42,100.83ZM202,92.48h41.21V51.28H202Z" transform="translate(-1.88 -0.79)"/>
    <path class="cls-1" d="M221.55,162.41h0a4.17,4.17,0,0,1-3.58-2l-7.32-12.29a4.18,4.18,0,0,1,7.18-4.27l3.73,6.27,7.79-13a4.18,4.18,0,0,1,7.17,4.28l-11.38,19.05A4.15,4.15,0,0,1,221.55,162.41Z" transform="translate(-1.88 -0.79)"/>
    <path class="cls-1" d="M247.42,179.36H197.87a4.18,4.18,0,0,1-4.18-4.17V125.63a4.18,4.18,0,0,1,4.18-4.17h49.55a4.18,4.18,0,0,1,4.18,4.17v49.56A4.18,4.18,0,0,1,247.42,179.36ZM202,171h41.21v-41.2H202Z" transform="translate(-1.88 -0.79)"/>
    <path class="cls-1" d="M156.93,180.59H56.18A4.18,4.18,0,0,1,52,176.41V75.66a4.18,4.18,0,0,1,4.18-4.18H156.93a4.18,4.18,0,0,1,4.17,4.18V176.41A4.18,4.18,0,0,1,156.93,180.59Zm-96.58-8.36h92.4V79.84H60.35Z" transform="translate(-1.88 -0.79)"/>
    <path class="cls-1" d="M155.86,54.38H57.24a4.18,4.18,0,0,1,0-8.36h98.62a4.18,4.18,0,0,1,0,8.36Z" transform="translate(-1.88 -0.79)"/>
    <path class="cls-1" d="M99.85,154.6a4.18,4.18,0,0,1,4.18-4.18h0a4.2,4.2,0,0,1,4.18,4.18h0a4.2,4.2,0,0,1-4.18,4.18h0A4.18,4.18,0,0,1,99.85,154.6Zm0-33.41A4.18,4.18,0,0,1,104,117h0a4.2,4.2,0,0,1,4.18,4.18h0a4.19,4.19,0,0,1-4.18,4.17h0A4.17,4.17,0,0,1,99.85,121.19Zm0-33.42A4.17,4.17,0,0,1,104,83.6h0a4.19,4.19,0,0,1,4.18,4.17h0A4.2,4.2,0,0,1,104,92h0A4.18,4.18,0,0,1,99.85,87.77Z" transform="translate(-1.88 -0.79)"/>
    <path class="cls-1" d="M133.77,120.71a4.16,4.16,0,0,1,4.17-4.17h0a4.17,4.17,0,0,1,4.18,4.17h0a4.18,4.18,0,0,1-4.18,4.18h0A4.17,4.17,0,0,1,133.77,120.71Zm-33.42,0a4.17,4.17,0,0,1,4.18-4.17h0a4.17,4.17,0,0,1,4.18,4.17h0a4.18,4.18,0,0,1-4.18,4.18h0A4.18,4.18,0,0,1,100.35,120.71Zm-33.41,0a4.17,4.17,0,0,1,4.18-4.17h0a4.16,4.16,0,0,1,4.17,4.17h0a4.17,4.17,0,0,1-4.17,4.18h0A4.18,4.18,0,0,1,66.94,120.71Z" transform="translate(-1.88 -0.79)"/>
  </g>
</svg>
