<svg id="Layer_3" data-name="Layer 3" xmlns="http://www.w3.org/2000/svg" viewBox="0 0 292 287">
  <defs>
    <style>
      .cls-1 {
        fill: #fff;
      }
    </style>
  </defs>
  <title>Icon3-01</title>
  <g>
    <path class="cls-1" d="M222.62,56.2H175.68a4.13,4.13,0,0,1-4.13-4.13V5.13a4.13,4.13,0,0,1,7-2.92l46.94,46.94a4.13,4.13,0,0,1-2.92,7.05Zm-42.81-8.26h32.84L179.81,15.1Z"/>
    <path class="cls-1" d="M144.19,100.36H87.28a4.13,4.13,0,0,1-4.13-4.13V52.07a4.13,4.13,0,0,1,4.13-4.13h56.91a4.13,4.13,0,0,1,4.13,4.13V96.23A4.13,4.13,0,0,1,144.19,100.36ZM91.41,92.1h48.65V56.2H91.41Z"/>
    <path class="cls-1" d="M199.15,129.91H87.28a4.13,4.13,0,0,1,0-8.26H199.15a4.13,4.13,0,0,1,0,8.26Z"/>
    <path class="cls-1" d="M199.67,156.07H87.8a4.13,4.13,0,0,1,0-8.26H199.67a4.13,4.13,0,1,1,0,8.26Z"/>
    <path class="cls-1" d="M200.19,182.23H88.32a4.13,4.13,0,1,1,0-8.26H200.19a4.13,4.13,0,0,1,0,8.26Z"/>
    <path class="cls-1" d="M36.48,266.1H20A4.13,4.13,0,0,1,15.82,262V92.05a12.41,12.41,0,0,1,12.39-12.4H64.85A4.13,4.13,0,0,1,69,83.78v16.53a4.13,4.13,0,0,1-4.13,4.13H40.61V262A4.13,4.13,0,0,1,36.48,266.1Zm-12.4-8.26h8.26V100.31a4.13,4.13,0,0,1,4.14-4.13H60.72V87.92H28.21a4.14,4.14,0,0,0-4.13,4.13Z"/>
    <path class="cls-1" d="M273,266.1H256.5a4.13,4.13,0,0,1-4.13-4.13V104.44H222.62a4.13,4.13,0,0,1-4.13-4.13V83.78a4.13,4.13,0,0,1,4.13-4.13h42.14a12.41,12.41,0,0,1,12.39,12.4V262A4.13,4.13,0,0,1,273,266.1Zm-12.39-8.26h8.26V92.05a4.13,4.13,0,0,0-4.13-4.13h-38v8.26H256.5a4.13,4.13,0,0,1,4.13,4.13Z"/>
    <path class="cls-1" d="M222.62,217.12H64.85A4.13,4.13,0,0,1,60.72,213V5.13A4.13,4.13,0,0,1,64.85,1H175.68a4.13,4.13,0,0,1,4.13,4.13V47.94h42.81a4.13,4.13,0,0,1,4.13,4.13V213A4.13,4.13,0,0,1,222.62,217.12ZM69,208.86H218.49V56.2H175.68a4.13,4.13,0,0,1-4.13-4.13V9.26H69Z"/>
    <path class="cls-1" d="M272,286H21A17.75,17.75,0,0,1,3.29,268.27V262a4.13,4.13,0,0,1,4.13-4.13H285.55a4.13,4.13,0,0,1,4.13,4.13v6.3A17.75,17.75,0,0,1,272,286ZM11.55,266.1v2.17A9.48,9.48,0,0,0,21,277.74H272a9.48,9.48,0,0,0,9.47-9.47V266.1Z"/>
    <path class="cls-1" d="M156,276.05H136.93A14.09,14.09,0,0,1,122.85,262a4.13,4.13,0,0,1,4.13-4.13h39a4.13,4.13,0,0,1,4.13,4.13A14.09,14.09,0,0,1,156,276.05Zm-23.2-9.95a5.79,5.79,0,0,0,4.09,1.69H156a5.83,5.83,0,0,0,4.1-1.69Z"/>
  </g>
</svg>
